<?xml version="1.0" encoding="utf-8"?>
<!-- Generator: Adobe Illustrator 18.0.0, SVG Export Plug-In . SVG Version: 6.00 Build 0)  -->
<!DOCTYPE svg PUBLIC "-//W3C//DTD SVG 1.1//EN" "http://www.w3.org/Graphics/SVG/1.1/DTD/svg11.dtd">
<svg version="1.1" id="Layer_1" xmlns="http://www.w3.org/2000/svg" xmlns:xlink="http://www.w3.org/1999/xlink" x="0px" y="0px"
	 viewBox="0 0 157.6 128" enable-background="new 0 0 157.6 128" xml:space="preserve">
<g>
	<path fill="#11C5BF" d="M141.4,31.9c0.1,1.4,0.1,2.8,0.1,4.2c0,42.7-32.5,91.9-91.9,91.9c-18.3,0-35.3-5.3-49.6-14.5
		c2.6,0.3,5.1,0.4,7.8,0.4c15.1,0,29-5.1,40.1-13.8c-14.2-0.3-26.1-9.6-30.2-22.4c2,0.3,4,0.5,6.1,0.5c2.9,0,5.8-0.4,8.5-1.1
		c-14.8-3-25.9-16-25.9-31.7c0-0.1,0-0.3,0-0.4c4.3,2.4,9.3,3.9,14.6,4.1C12.3,43.3,6.6,33.4,6.6,22.2c0-6,1.6-11.5,4.4-16.3
		c15.9,19.6,39.8,32.4,66.6,33.8c-0.5-2.4-0.8-4.9-0.8-7.4C76.8,14.5,91.2,0,109.1,0c9.3,0,17.7,3.9,23.6,10.2
		c7.3-1.4,14.3-4.1,20.5-7.8c-2.4,7.5-7.5,13.8-14.2,17.8c6.5-0.7,12.8-2.5,18.6-5C153.2,21.6,147.7,27.3,141.4,31.9z"/>
</g>
</svg>
